<svg xmlns="http://www.w3.org/2000/svg" viewBox="0 0 64 64">
  <defs>
    <linearGradient id="brand" x1="0" y1="0" x2="1" y2="1">
      <stop offset="0%" stop-color="#3B82F6"/>
      <stop offset="100%" stop-color="#1E40AF"/>
    </linearGradient>
  </defs>
  <rect width="64" height="64" rx="14" fill="url(#brand)"/>
  <g fill="#F9FAFB">
    <!-- J -->
    <path d="M22 16h6v22c0 5.2-3.8 10-10 10-3 0-5.8-1.1-7.9-3.1l4.1-4.1c1.1.9 2.4 1.4 3.8 1.4 2.2 0 4-1.7 4-4V16z"/>
    <!-- D -->
    <path d="M34 16h7.2c8 0 12.8 5.2 12.8 16s-4.8 16-12.8 16H34V16zm7 26c4.8 0 7.4-3.3 7.4-10s-2.6-10-7.4-10H40v20h1z"/>
  </g>
  <circle cx="52" cy="12" r="4" fill="#F59E0B"/>
</svg>
